<svg version="1.1" id="Layer_1" xmlns="http://www.w3.org/2000/svg" xmlns:xlink="http://www.w3.org/1999/xlink" x="0" y="0" viewBox="0 0 692 600" xml:space="preserve"><style>.st18{fill:#f8f7f8}.st21{fill:#63f15b;stroke:#0d5068;stroke-miterlimit:10}.st22{fill:#00e00a}.st25{fill:none;stroke:#0d5068;stroke-miterlimit:10}.st26{fill:#63f15b}.st32,.st34,.st35,.st39,.st40{fill:#0d5068;stroke:#0d5068;stroke-miterlimit:10}.st34,.st35,.st39,.st40{fill:#00e00a}.st35,.st39,.st40{fill:#f8f7f8}.st39,.st40{fill:none;stroke:#0d234c;stroke-linejoin:round}.st40{fill:#f83c00}.st41{fill:#0d234c}.st43{fill:none}.st45{opacity:.5;fill:#112a4c;stroke:#0d234c;stroke-linecap:round;stroke-linejoin:round;stroke-miterlimit:10}.st46{fill:#acc4cb}.st50,.st51,.st52{stroke-miterlimit:10}.st50{fill:#112a4c;stroke:#0d234c;stroke-linecap:round;stroke-linejoin:round}.st51,.st52{fill:#acc4cb;stroke:#0d5068}.st52{fill:none;stroke:#0d234c;stroke-linecap:round;stroke-linejoin:round}.st53,.st54,.st58,.st59{fill:#00b900;stroke:#0d5068;stroke-miterlimit:10}.st54,.st58,.st59{fill:none;stroke:#0d234c}.st58,.st59{fill:#00b900;stroke:#0d5068;stroke-linejoin:round}.st59{fill:#cae8d6;stroke:#0d234c;stroke-linecap:round}</style><ellipse class="st39" cx="638.4" cy="313.1" rx="52.6" ry="30.4"/><ellipse class="st39" cx="638.4" cy="313.1" rx="27.4" ry="15.8"/><path class="st40" d="M193 268.4l23.1 13.4M277.9 217.5l23.1 13.3"/><ellipse class="st39" cx="525.5" cy="435.2" rx="11.9" ry="6.9"/><path class="st39" d="M484.1 411.9l40.5 23.2"/><ellipse class="st41" cx="525.5" cy="435.2" rx="3.7" ry="2.1"/><path class="st39" d="M423 448l9.9 5.3c6.7 3.9 16.8 4.3 22.6.9l132.9-76.9c5.8-3.3 5.1-9.2-1.6-13l-9.9-5.3M321.9 159.5l29.4-17c5.2-3 14.3-2.6 20.3.8l26.5 15.3"/><g opacity=".5"><path class="st43" d="M422.5 145.3c4.5 2.6-20 16.8-15.5 19.4 4.5 2.6 29-11.6 33.5-9 4.5 2.6-20 16.8-15.5 19.4 4.5 2.6 29-11.6 33.5-9 4.5 2.6-20 16.8-15.5 19.4 4.5 2.6 29-11.6 33.6-9 4.5 2.6-20 16.8-15.5 19.4 4.5 2.6 29-11.6 33.6-9 4.5 2.6-20 16.8-15.5 19.4 4.5 2.6 29.1-11.6 33.6-9 4.5 2.6-20 16.8-15.5 19.4 4.5 2.6 29.1-11.6 33.6-9 4.5 2.6-20 16.8-15.5 19.4 4.5 2.6 29-11.6 33.6-9 4.5 2.6-20 16.8-15.5 19.4 4.5 2.6 29.1-11.6 33.6-9 4.5 2.6-20 16.8-15.5 19.4 4.5 2.6 29.1-11.6 33.6-9 4.5 2.6-20 16.8-15.5 19.4"/><path d="M403.2 162.9c4.6 2.7 29.7-11.8 34.3-9.2 4.6 2.7-20.5 17.1-15.9 19.8 4.6 2.7 29.7-11.8 34.3-9.2 4.6 2.7-20.5 17.1-15.9 19.8 4.6 2.7 29.7-11.8 34.3-9.2 4.6 2.7-20.5 17.1-15.9 19.8 4.6 2.7 29.7-11.8 34.3-9.2 4.6 2.7-20.5 17.1-15.9 19.8 4.6 2.7 29.7-11.8 34.3-9.2 4.6 2.7-20.5 17.1-15.9 19.8 4.6 2.7 29.7-11.8 34.3-9.2 4.6 2.7-20.5 17.1-15.9 19.8 4.6 2.7 29.7-11.8 34.3-9.2 4.6 2.7-20.5 17.1-15.9 19.8 4.6 2.7 29.7-11.8 34.3-9.2 4.6 2.7-20.5 17.1-15.9 19.8 4.6 2.7 29.7-11.8 34.3-9.2" fill="none" stroke="#0d234c" stroke-width="6" stroke-linecap="round" stroke-miterlimit="10"/></g><path class="st32" d="M576.2 243.3l-69.5 40.6M583 246.6l-69.5 40.7M591.4 250L522 290.7"/><path class="st39" d="M94 369.9l164.5-96.2"/><path class="st45" d="M339.5 451.2l31.2-17.9-13.6-4.1h1.7l-28.1 16.1zM418.5 451.2l-31.3-17.9 13.7-4.1h-1.7l28.1 16.1zM448.9 433.2l-31.3-17.9 13.7-4.1h-1.7l28.1 16.1zM479.6 416.1l-31.3-18L462 394h-1.7l28.1 16.1zM510.4 398.5l-31.2-17.9 13.7-4.1h-1.7l28.1 16.1zM541.4 380.9L510.2 363l13.6-4.1h-1.7l28.1 16.1zM572 363l-31.3-18 13.7-4.1h-1.7l28.1 16.1zM309.1 433.7l31.3-17.9-13.7-4.1h1.7l-28.1 16.1zM278.3 416.1l31.3-18-13.7-4.1h1.7l-28.1 16.1zM247.3 398.5l31.3-17.9-13.7-4.1h1.7l-28.1 16.1zM216.5 380.9l31.3-17.9-13.7-4.1h1.7L207.7 375zM186 363.3l31.2-17.9-13.6-4.1h1.7l-28.1 16.1z"/><path class="st32" d="M334.1 448.1l-69.4 40.7M303.9 430.4l-69.5 40.7M273.6 412.7l-69.5 40.7M243.3 395l-69.4 40.7M213 377.3L143.6 418M182.8 359.6l-69.5 40.7"/><path class="st39" d="M87.1 394.8L12.7 352c-15.6-9-15.6-23.6 0-32.5l59.5-34.7"/><path class="st39" d="M93.4 391.1L19 348.3c-12.1-7-12.1-18.3 0-25.3l59.5-34.7"/><path class="st39" d="M99.6 387.5l-74.4-42.8c-8.6-5-8.6-13.1 0-18.1l59.5-34.7"/><path class="st39" d="M105.9 383.9l-74.4-42.8c-5.2-3-5.2-7.9 0-10.8L91 295.6"/><path class="st39" d="M112.2 380.3l-74.4-42.8c-1.7-1-1.7-2.6 0-3.6l59.5-34.7"/><path d="M341.7 160.7l-3.6 1.3c-2.7-3.8-6.8-7.5-12.3-10.7-19.3-11.1-48.5-12.4-65.2-2.7L77.2 255.2c-1.4.8-2.7 1.7-3.9 2.7l-7.4 2.7v11.1c0 7.4 5.4 15.2 16 21.3 19.3 11.1 48.5 12.4 65.2 2.7l183.3-106.6c7.7-4.4 11.4-10.4 11.3-16.7v-11.7z" fill="#0d5068"/><path class="st25" d="M341.7 160.7l-3.6 1.3c-2.7-3.8-6.8-7.5-12.3-10.7-19.3-11.1-48.5-12.4-65.2-2.7L77.2 255.2c-1.4.8-2.7 1.7-3.9 2.7l-7.4 2.7v11.1c0 7.4 5.4 15.2 16 21.3 19.3 11.1 48.5 12.4 65.2 2.7l183.3-106.6c7.7-4.4 11.4-10.4 11.3-16.7v-11.7z"/><path class="st21" d="M147.1 284.6L330.4 178c16.7-9.7 14.6-26.5-4.7-37.7-19.3-11.1-48.5-12.4-65.2-2.7L77.2 244.2c-16.7 9.7-14.6 26.5 4.7 37.7 19.3 11.1 48.5 12.3 65.2 2.7z"/><path class="st39" d="M453.1 429.9l40.5 23.2"/><path class="st46" d="M575 331.7v-33.5l-46.1-.3-133.5-83.7c-9.3-5.4-23.3-5.9-31.4-1.3l-133.1 83.2-48.6-.3-.2 35.3c0 3.6 2.6 7.3 7.7 10.2l172 99.3c9.3 5.4 23.3 5.9 31.4 1.3L569.7 340c3.8-2.2 5.5-5.2 5.3-8.3z"/><path class="st25" d="M575 331.7v-33.5l-46.1-.3-133.5-83.7c-9.3-5.4-23.3-5.9-31.4-1.3l-133.1 83.2-48.6-.3-.2 35.3c0 3.6 2.6 7.3 7.7 10.2l172 99.3c9.3 5.4 23.3 5.9 31.4 1.3L569.7 340c3.8-2.2 5.5-5.2 5.3-8.3z"/><path class="st35" d="M569.6 306.5L393.1 408.4c-8 4.6-22.1 4.1-31.4-1.3l-172-99.3c-9.3-5.4-10.3-13.5-2.3-18.1L364 187.8c8-4.6 22.1-4.1 31.4 1.3l172 99.3c9.2 5.4 10.2 13.5 2.2 18.1z"/><path class="st26" d="M550.2 296.3v-15.6h-22.9l-142.4-82.2c-3.5-2-8.7-2.2-11.8-.5l-143.2 82.7H207v15.9h.1c.3 1 1.3 2.1 2.7 2.9l162.5 93.8c3.5 2 8.7 2.2 11.8.5L548.2 299c1.2-.7 1.8-1.5 2-2.4v-.3z"/><path class="st25" d="M550.2 296.3v-15.6h-22.9l-142.4-82.2c-3.5-2-8.7-2.2-11.8-.5l-143.2 82.7H207v15.9h.1c.3 1 1.3 2.1 2.7 2.9l162.5 93.8c3.5 2 8.7 2.2 11.8.5L548.2 299c1.2-.7 1.8-1.5 2-2.4v-.3z"/><path class="st34" d="M372.2 378l-162.5-93.8c-3.5-2-3.9-5-.8-6.8l164.2-94.8c3-1.7 8.3-1.5 11.8.5L547.3 277c3.5 2 3.9 5 .8 6.8L384 378.5c-3 1.8-8.3 1.6-11.8-.5zM364.4 350.1l1.7 1zM313 320.4l.4.2zM260.8 290.2l20.1 11.6-20.1-11.6z"/><path class="st34" d="M302.7 314.4l9 5.3v-.1zM492.9 292.2l-30.1 17.4h-.1l-15.3 8.9h-.1L417 336l-15.2 8.8-.1.1-23.2 13.3 126.9-73.1h-.1l-12.3 7zM339.8 335.9l4.7 2.7-4.7-2.7zM338.1 334.9l.6.3-.6-.3zM259 289.2l1.3.8-1.2-.8z"/><path class="st34" d="M426.6 315.2l-5.6-12-20.7-3.2-5.6-12-20.8-3.3-5.6-12-20.7-3.2-5.6-12-20.8-3.2-2.9-6.2h-.1l2.9 6.3 20.8 3.2 5.6 12 20.7 3.2 5.6 12 20.8 3.2 5.5 12 20.8 3.2 5.6 12 20.8 3.2v.1h.1v-.1zM260.4 289.5l-1.3-.3 1.2.8.4.2z"/><path class="st34" d="M253 285.8l6 3.4 1.4.2 15.1-8.7-2.9-6.3z"/><path class="st34" d="M260.4 289.5v-.1l-1.4-.2h.1zM305.9 263.2l-10.8-1.7-22.4 12.9 2.9 6.3 20.8 3.2 15.1-8.7z"/><path class="st34" d="M272.7 274.4h-.1l2.9 6.3h.1zM321.1 254.4l-2.9-6.3-23.1 13.4 10.8 1.7zM305.9 263.2l-10.8-1.7zM342 257.5l15.2-8.7-5.6-12-10.8-1.7-22.5 13 2.9 6.2zM285.4 304.5l1.7.9-.4-.7zM332.3 278.4l-20.8-3.2-15.1 8.7 5.5 12 20.8 3.2 15.1-8.7z"/><path class="st34" d="M378 252l-20.8-3.2-15.2 8.7 5.6 12 20.7 3.2 15.2-8.7zM366.7 228.1l-2.9-6.3-23 13.3 10.8 1.7zM351.6 236.8l-10.8-1.7zM286.7 304.6l15.2-8.7-5.6-12-20.8-3.2-15.1 8.7.4.8 20.1 11.6 4.5 2.6z"/><path class="st34" d="M260.4 289.4v.1l.3.7h.1zM275.6 280.7h-.1l20.8 3.2h.1zM285.4 304.5l1.3.2v-.1l-1.3-.2zM296.4 283.9h-.1l5.6 12zM311.5 275.2l20.8 3.2 15.2-8.8-5.6-12-20.8-3.2-15.2 8.8zM311.5 275.2l-5.6-12 5.6 12zM332.3 278.4l-20.8-3.2zM378 252l15.1-8.7-5.6-12-20.8-3.2-15.1 8.7 5.6 12zM351.6 236.8l5.6 12zM378 252l-20.8-3.2L378 252zM313.1 319.9l-1.4-.2 1.3.7.4.2zM358.6 293.6l-20.8-3.2-15.1 8.7 5.6 12 20.8 3.2 15.1-8.7zM404.3 267.2l-20.8-3.2-15.2 8.7 5.6 12 20.8 3.3 15.2-8.8zM387.6 231.2l12.2-7-20.1-11.6-15.8 9.1 2.9 6.3z"/><path class="st34" d="M366.8 228l-2.9-6.3-.1.1 2.9 6.3z"/><path class="st34" d="M387.6 231.2l-20.8-3.2-.1.1 20.8 3.2zM393.2 243.2l20.8 3.2 12.1-7-26.3-15.2-12.2 7z"/><path class="st34" d="M393.1 243.3l.1-.1-5.6-12-.1.1zM419.5 258.4l20.8 3.2 12.2-7-26.4-15.2-12.1 7zM313.1 319.9l15.1-8.8-5.6-12-20.7-3.2-15.2 8.7.4.8 15.6 9 9 5.2z"/><path class="st34" d="M287.1 305.4l-.4-.8v.1zM301.9 295.9l20.7 3.2h.1zM313.1 319.9l-1.4-.3v.1zM322.7 299.1h-.1l5.6 12h.1zM337.8 290.4l20.8 3.2 15.2-8.8-5.6-12-20.7-3.2-15.2 8.8zM337.8 290.4l-5.5-12zM358.6 293.6l-20.8-3.2zM404.3 267.2l15.1-8.7-5.6-12-20.7-3.2L378 252l5.6 12z"/><path class="st34" d="M378 252l5.5 12h.1zM383.6 264h-.1l20.8 3.2zM413.8 246.5l.2-.1-20.8-3.2-.1.1z"/><path class="st34" d="M419.4 258.5l.1-.1-5.5-12-.2.1zM328.2 311.1l-15.1 8.8.4.8 24.6 14.2 1.3.2 15.1-8.8-5.5-12z"/><path class="st34" d="M313.1 319.9l.3.7.1.1zM349.1 314.3l-20.8-3.2h-.1l20.8 3.2zM364.2 305.6l20.8 3.2 15.1-8.8-5.5-12-20.8-3.2-15.2 8.8zM364.2 305.6l-5.6-12zM419.4 258.5l-15.1 8.7 5.6 12 20.8 3.2 15-8.7-5.5-12zM404.3 267.2l5.6 12z"/><path class="st34" d="M440.2 261.7l.1-.1-20.8-3.2-.1.1zM339.4 335.1l-1.3-.2.6.3 1.1.6zM339.4 335.1l-1.3-.2zM384.9 308.8l-20.7-3.2-15.1 8.7 5.5 12 20.8 3.2 15.1-8.7z"/><path class="st34" d="M349.1 314.3h-.1l5.5 12h.1zM384.9 308.8h.1l-20.8-3.2zM430.7 282.4l-20.8-3.2-15.2 8.8 5.6 12 20.7 3.2 15.2-8.8zM409.9 279.2l20.8 3.2-20.8-3.2zM445.9 273.6l20.7 3.2 12.2-7-26.3-15.2-12.2 7z"/><path class="st34" d="M445.7 273.7l.2-.1-5.6-12-.1.1zM365.8 350.3l15.1-8.7-5.6-12-20.8-3.3-15.1 8.8.4.8 4.7 2.7 19.9 11.5z"/><path class="st34" d="M339.4 335.1l.4.7v.1zM354.6 326.3h-.1l20.8 3.3.1-.1zM390.5 320.8l20.8 3.2 15.2-8.8-5.6-12-20.8-3.2-15.1 8.8z"/><path class="st34" d="M390.5 320.8l-5.5-12h-.1zM445.7 273.7l-15 8.7 5.5 12 20.8 3.2 15.1-8.7-5.6-12zM436.2 294.4l-5.5-12z"/><path class="st34" d="M445.7 273.7l20.8 3.2.1-.1-20.7-3.2zM366.1 351.1l-.3-.8-1.4-.2zM365.8 350.3l-1.4-.2zM390.5 320.8l-15.1 8.7 5.6 12 20.7 3.2 15.1-8.7-5.5-12z"/><path class="st34" d="M375.4 329.5l-.1.1 5.6 12 .1-.1zM390.5 320.8l20.8 3.2-20.8-3.2zM436.2 294.4l-15.2 8.8 5.6 12 20.8 3.2 15.2-8.8-5.6-12zM436.2 294.4l20.8 3.2-20.8-3.2zM466.6 276.8l5.6 12L493 292l12.2-7-26.4-15.2z"/><path class="st34" d="M472.1 288.9l.1-.1-5.6-12-.1.1zM401.7 344.8l-20.8-3.2-15.1 8.7.3.8 12.4 7.1 23.2-13.3zM365.8 350.3l.3.8z"/><path class="st34" d="M381 341.5l-.1.1 20.8 3.2v-.1zM426.5 315.2l-15.2 8.8 5.6 12h.1l30.3-17.5v-.1z"/><path class="st34" d="M416.8 336h.1l-5.6-12zM472.1 288.9l-15.1 8.7 5.6 12h.2l30.1-17.4v-.1zM462.6 309.6l-5.6-12z"/><path class="st34" d="M472.1 288.9l20.8 3.2.1-.1-20.8-3.2zM401.7 344.7l.1.1L417 336h-.2z"/><path class="st34" d="M401.7 344.8v.1l.1-.1-.1-.1zM416.8 336h.2-.1zM447.4 318.4v.1l15.3-8.9h-.1zM462.6 309.6h.2-.2zM493 292v.1l12.3-7-.1-.1zM492.9 292.2l.1-.1v-.1l-.1.1z"/><path class="st32" d="M244.1 280.6L378.6 203 513 280.6l-7.7 4.5-125.6-72.5-126.8 73.1z"/><g><path class="st50" d="M207.1 331.2v20l-10.2-5.7-.2-20.3z"/><path class="st34" d="M196.7 325.2l-15.5 9c-3.1 1.8-5.6 6.1-5.6 9.6v13.5l10.5 6v-13.6c0-3.5 2.5-7.8 5.5-9.6l15.4-8.9-10.3-6z"/><path class="st50" d="M237.8 348.8v20.1l-10.2-5.8-.2-20.2z"/><path class="st34" d="M227.4 342.8l-15.5 9c-3.1 1.8-5.6 6.1-5.6 9.6v13.5l10.5 6v-13.6c0-3.5 2.5-7.8 5.5-9.6l15.4-8.9-10.3-6z"/><path class="st50" d="M268.4 366.4v20l-10.2-5.7-.1-20.3z"/><path class="st34" d="M258.1 360.4l-15.5 9c-3.1 1.8-5.6 6.1-5.6 9.6v13.5l10.5 6v-13.6c0-3.5 2.5-7.8 5.5-9.6l15.4-8.9-10.3-6z"/><g><path class="st50" d="M299.1 384v20l-10.2-5.8-.1-20.2z"/><path class="st34" d="M288.7 378l-15.5 9c-3.1 1.8-5.6 6.1-5.6 9.6v13.5l10.5 6v-13.6c0-3.5 2.5-7.8 5.5-9.6L299 384l-10.3-6z"/></g><g><path class="st50" d="M329.8 401.6v20l-10.2-5.8-.2-20.2z"/><path class="st34" d="M319.4 395.5l-15.5 9c-3.1 1.8-5.6 6.1-5.6 9.6v13.5l10.5 6V420c0-3.5 2.5-7.8 5.5-9.6l15.4-8.9-10.3-6z"/></g><g><path class="st50" d="M360.5 419.1v20l-10.3-5.8-.1-20.2z"/><path class="st35" d="M350.1 413.1l-15.5 9c-3.1 1.8-5.6 6.1-5.6 9.6v13.5l10.5 6v-13.6c0-3.5 2.5-7.8 5.5-9.6l15.4-8.9-10.3-6z"/></g></g><g><path class="st50" d="M550.7 331.2v19.2l10.2-5.8.2-19.4z"/><path class="st34" d="M561.1 325.2l15.5 9c3.1 1.8 5.6 6.1 5.6 9.6v13.5l-10.5 6v-13.6c0-3.5-2.5-7.8-5.5-9.6l-15.4-8.9 10.3-6z"/><path class="st50" d="M520 348.8v20.1l10.3-5.8.1-20.2z"/><path class="st34" d="M530.4 342.8l15.5 9c3.1 1.8 5.6 6.1 5.6 9.6v13.5l-10.5 6v-13.6c0-3.5-2.5-7.8-5.5-9.6l-15.4-8.9 10.3-6z"/><path class="st50" d="M489.4 366.4v20l10.2-5.7.1-20.3z"/><path class="st34" d="M499.7 360.4l15.5 9c3.1 1.8 5.6 6.1 5.6 9.6v13.5l-10.5 6v-13.6c0-3.5-2.5-7.8-5.5-9.6l-15.4-8.9 10.3-6z"/><g><path class="st50" d="M458.7 384v20l10.2-5.8.2-20.2z"/><path class="st34" d="M469.1 378l15.5 9c3.1 1.8 5.6 6.1 5.6 9.6v13.5l-10.5 6v-13.6c0-3.5-2.5-7.8-5.5-9.6l-15.4-8.9 10.3-6z"/></g><g><path class="st50" d="M428 401.6v20l10.2-5.8.2-20.2z"/><path class="st34" d="M438.4 395.5l15.5 9c3.1 1.8 5.6 6.1 5.6 9.6v13.5l-10.5 6V420c0-3.5-2.5-7.8-5.5-9.6l-15.4-8.9 10.3-6z"/></g><g><path class="st50" d="M397.3 419.1v20l10.3-5.8.1-20.2z"/><path class="st34" d="M407.7 413.1l15.5 9c3.1 1.8 5.6 6.1 5.6 9.6v13.5l-10.5 6v-13.6c0-3.5-2.5-7.8-5.5-9.6l-15.4-8.9 10.3-6z"/></g></g><path class="st35" d="M94.9 270l214.7-124.1"/><g><path class="st18" d="M238.7 136c0-17.8-14.4-32.2-32.2-32.2-17.8 0-32.2 14.4-32.2 32.2v73.3c0 4.8 3.1 9.5 9.4 13.1 12.6 7.3 32.9 7.3 45.5 0 6.3-3.6 9.4-8.4 9.4-13.1V136c.1.1.1.1.1 0z"/><path class="st25" d="M238.7 136c0-17.8-14.4-32.2-32.2-32.2-17.8 0-32.2 14.4-32.2 32.2v73.3c0 4.8 3.1 9.5 9.4 13.1 12.6 7.3 32.9 7.3 45.5 0 6.3-3.6 9.4-8.4 9.4-13.1V136c.1.1.1.1.1 0z"/><path class="st35" d="M238.7 199c0 4.8-3.1 9.5-9.4 13.1-12.6 7.3-32.9 7.3-45.5 0-6.3-3.6-9.4-8.4-9.4-13.1v-14.3c0 4.8 3.1 9.5 9.4 13.1 12.6 7.3 32.9 7.3 45.5 0 6.3-3.6 9.4-8.4 9.4-13.1V199z"/><path class="st51" d="M238.7 209.9c0 4.8-3.1 9.5-9.4 13.1-12.6 7.3-32.9 7.3-45.5 0-6.3-3.6-9.4-8.4-9.4-13.1v-14.3c0 4.8 3.1 9.5 9.4 13.1 12.6 7.3 32.9 7.3 45.5 0 6.3-3.6 9.4-8.4 9.4-13.1v14.3z"/><path class="st52" d="M229.2 177.5c-3.5 2-7.7 3.5-12.1 4.4-6.2 1.2-10.6 6.7-10.6 13v8.4"/><ellipse transform="rotate(-60 229.124 176.88)" class="st35" cx="229.1" cy="176.9" rx="6.1" ry="3.5"/><path class="st21" d="M198.4 173c0-2.7-1.8-5.1-4.5-5.7-3.7-.9-7.2-2.2-10.2-4-6.3-3.6-9.4-8.4-9.4-13.1v14.3c0 4.8 3.1 9.5 9.4 13.1 3.2 1.8 6.9 3.2 10.9 4.1 1.9.4 3.8-1.1 3.8-3.1V173z"/></g><g><path class="st18" d="M322.4 85.7c0-17.8-14.4-32.2-32.2-32.2S258 67.9 258 85.7V159c0 4.8 3.1 9.5 9.4 13.1 12.6 7.3 32.9 7.3 45.5 0 6.3-3.6 9.4-8.4 9.4-13.1V85.7z"/><path class="st25" d="M322.4 85.7c0-17.8-14.4-32.2-32.2-32.2S258 67.9 258 85.7V159c0 4.8 3.1 9.5 9.4 13.1 12.6 7.3 32.9 7.3 45.5 0 6.3-3.6 9.4-8.4 9.4-13.1V85.7z"/><path class="st35" d="M322.4 148.6c0 4.8-3.1 9.5-9.4 13.1-12.6 7.3-32.9 7.3-45.5 0-6.3-3.6-9.4-8.4-9.4-13.1v-14.3c0 4.8 3.1 9.5 9.4 13.1 12.6 7.3 32.9 7.3 45.5 0 6.3-3.6 9.4-8.4 9.4-13.1v14.3z"/><path class="st51" d="M322.4 159.5c0 4.8-3.1 9.5-9.4 13.1-12.6 7.3-32.9 7.3-45.5 0-6.3-3.6-9.4-8.4-9.4-13.1v-14.3c0 4.8 3.1 9.5 9.4 13.1 12.6 7.3 32.9 7.3 45.5 0 6.3-3.6 9.4-8.4 9.4-13.1v14.3z"/><path class="st52" d="M312.9 127.1c-3.5 2-7.7 3.5-12.1 4.4-6.2 1.2-10.6 6.7-10.6 13v8.4"/><ellipse transform="rotate(-60 312.824 126.51)" class="st35" cx="312.8" cy="126.5" rx="6.1" ry="3.5"/><path class="st21" d="M282.1 122.7c0-2.7-1.8-5.1-4.5-5.7-3.7-.9-7.2-2.2-10.2-4-6.3-3.6-9.4-8.4-9.4-13.1v14.3c0 4.8 3.1 9.5 9.4 13.1 3.2 1.8 6.9 3.2 10.9 4.1 1.9.4 3.8-1.1 3.8-3.1v-5.6z"/></g><g><path class="st18" d="M149.9 183.5c0-17.8-14.4-32.2-32.2-32.2-17.8 0-32.2 14.4-32.2 32.2v73.3c0 4.8 3.1 9.5 9.4 13.1 12.6 7.3 32.9 7.3 45.5 0 6.3-3.6 9.4-8.4 9.4-13.1l.1-73.3z"/><path class="st25" d="M149.9 183.5c0-17.8-14.4-32.2-32.2-32.2-17.8 0-32.2 14.4-32.2 32.2v73.3c0 4.8 3.1 9.5 9.4 13.1 12.6 7.3 32.9 7.3 45.5 0 6.3-3.6 9.4-8.4 9.4-13.1l.1-73.3z"/><path class="st35" d="M149.9 246.4c0 4.8-3.1 9.5-9.4 13.1-12.6 7.3-32.9 7.3-45.5 0-6.3-3.6-9.4-8.4-9.4-13.1v-14.3c0 4.8 3.1 9.5 9.4 13.1 12.6 7.3 32.9 7.3 45.5 0 6.3-3.6 9.4-8.4 9.4-13.1v14.3z"/><path class="st51" d="M149.9 257.3c0 4.8-3.1 9.5-9.4 13.1-12.6 7.3-32.9 7.3-45.5 0-6.3-3.6-9.4-8.4-9.4-13.1V243c0 4.8 3.1 9.5 9.4 13.1 12.6 7.3 32.9 7.3 45.5 0 6.3-3.6 9.4-8.4 9.4-13.1v14.3z"/><path class="st52" d="M140.5 224.9c-3.5 2-7.7 3.5-12.1 4.4-6.2 1.2-10.6 6.7-10.6 13v8.4"/><ellipse transform="rotate(-60 140.346 224.308)" class="st35" cx="140.3" cy="224.3" rx="6.1" ry="3.5"/><path class="st21" d="M109.6 220.5c0-2.7-1.8-5.1-4.5-5.7-3.7-.9-7.2-2.2-10.2-4-6.3-3.6-9.4-8.4-9.4-13.1V212c0 4.8 3.1 9.5 9.4 13.1 3.2 1.8 6.9 3.2 10.9 4.1 1.9.4 3.8-1.1 3.8-3.1v-5.6z"/></g><g><path class="st53" d="M136.4 379c.5.3 1 .6 1.4 1l3.1 2.4c2.7 2.2 6.7 2.1 11-.3l5.5-3.2-16.2-9-5.5 3.2c-4.2 2.5-8.3 2.6-11 .3l-2.9-2.4 14.6 8z"/><path class="st21" d="M137 379.4l-16.2-9c-2.6-1.4-6.2-1.1-9.9 1.1l-14.6 8.4c-4.2 2.5-8.3 7-11 12.3l-2.9 5.7c-2.7 5.3-6.7 9.9-11 12.3l-5.5 3.2 16.2 9 5.5-3.2c4.2-2.5 8.3-7 11-12.3l2.9-5.7c2.7-5.3 6.7-9.9 11-12.3l14.6-8.4c3.8-2.2 7.4-2.5 10.1-1l-.2-.1z"/><path class="st32" d="M82.1 422.4l5.5-3.2c4.2-2.5 8.3-7 11-12.3l2.9-5.7c2.7-5.3 6.7-9.9 11-12.3l14.6-8.4c3.8-2.2 7.4-2.5 10.1-1l-.2-.1-.6-.3c.5.3 1 .6 1.4 1l3.1 2.4c2.7 2.2 6.7 2.1 11-.3l5.5-3.2v7.3l-75.3 44.1v-8z"/><path class="st53" d="M82.1 430.3l-16.2-9.1v-7.9l16.2 9.1z"/><path class="st39" d="M119.8 384.6v23.6"/><path class="st53" d="M168.5 396.8c.5.3 1 .6 1.4 1l3.1 2.4c2.7 2.2 6.7 2.1 11-.3l5.5-3.2-16.2-9-5.5 3.2c-4.2 2.5-8.3 2.6-11 .3l-2.9-2.4 14.6 8z"/><path class="st21" d="M169.1 397.2l-16.2-9c-2.6-1.4-6.2-1.1-9.9 1.1l-14.6 8.4c-4.2 2.5-8.3 7-11 12.3l-2.9 5.7c-2.7 5.3-6.7 9.9-11 12.3l-5.5 3.2 16.2 9 5.5-3.2c4.2-2.5 8.3-7 11-12.3l2.9-5.7c2.7-5.3 6.7-9.9 11-12.3l14.6-8.4c3.8-2.2 7.4-2.5 10.1-1l-.2-.1z"/><path class="st32" d="M114.3 440.2l5.5-3.2c4.2-2.5 8.3-7 11-12.3l2.9-5.7c2.7-5.3 6.7-9.9 11-12.3l14.6-8.4c3.8-2.2 7.4-2.5 10.1-1l-.2-.1-.6-.3c.5.3 1 .6 1.4 1l3.1 2.4c2.7 2.2 6.7 2.1 11-.3l5.5-3.2v7.3l-75.3 44.1v-8z"/><path class="st53" d="M114.3 448.1L98 439v-7.9l16.3 9.1z"/><path class="st39" d="M151.9 402.4V426"/><g><path class="st53" d="M200.7 413.8c.5.3 1 .6 1.4 1l3.1 2.4c2.7 2.2 6.7 2.1 11-.3l5.5-3.2-16.2-9-5.5 3.2c-4.2 2.5-8.3 2.6-11 .3l-2.9-2.4 14.6 8z"/><path class="st21" d="M201.2 414.1l-16.2-9c-2.6-1.4-6.2-1.1-9.9 1.1l-14.6 8.4c-4.2 2.5-8.3 7-11 12.3l-2.9 5.7c-2.7 5.3-6.7 9.9-11 12.3l-5.5 3.2 16.2 9 5.5-3.2c4.2-2.5 8.3-7 11-12.3l2.9-5.7c2.7-5.3 6.7-9.9 11-12.3l14.6-8.4c3.8-2.2 7.4-2.5 10.1-1l-.2-.1z"/><path class="st32" d="M146.4 457.1l5.5-3.2c4.2-2.5 8.3-7 11-12.3l2.9-5.7c2.7-5.3 6.7-9.9 11-12.3l14.6-8.4c3.8-2.2 7.4-2.5 10.1-1l-.2-.1-.6-.3c.5.3 1 .6 1.4 1l3.1 2.4c2.7 2.2 6.7 2.1 11-.3l5.5-3.2v7.3l-75.3 44v-7.9z"/><path class="st53" d="M146.4 465l-16.2-9v-7.9l16.2 9z"/><path class="st39" d="M184.1 419.4V443"/></g><g><path class="st53" d="M232.8 433.1c.5.3 1 .6 1.4 1l3.1 2.4c2.7 2.2 6.7 2.1 11-.3l5.5-3.2-16.2-9-5.5 3.2c-4.2 2.5-8.3 2.6-11 .3l-2.9-2.4 14.6 8z"/><path class="st21" d="M233.4 433.4l-16.2-9c-2.6-1.4-6.2-1.1-9.9 1.1l-14.6 8.4c-4.2 2.5-8.3 7-11 12.3l-2.9 5.7c-2.7 5.3-6.7 9.9-11 12.3l-5.5 3.2 16.2 9 5.5-3.2c4.2-2.5 8.3-7 11-12.3l2.9-5.7c2.7-5.3 6.7-9.9 11-12.3l14.6-8.4c3.8-2.2 7.4-2.5 10.1-1l-.2-.1z"/><path class="st32" d="M178.6 476.4l5.5-3.2c4.2-2.5 8.3-7 11-12.3l2.9-5.7c2.7-5.3 6.7-9.9 11-12.3l14.6-8.4c3.8-2.2 7.4-2.5 10.1-1l-.2-.1-.6-.3c.5.3 1 .6 1.4 1l3.1 2.4c2.7 2.2 6.7 2.1 11-.3l5.5-3.2v7.3l-75.3 44.1v-8z"/><path class="st53" d="M178.6 484.3l-16.3-9v-7.9l16.3 9z"/><path class="st39" d="M216.2 438.7v23.6"/></g><g><path class="st53" d="M265 450.3c.5.3 1 .6 1.4 1l3.1 2.4c2.7 2.2 6.7 2.1 11-.3l5.5-3.2-16.2-9-5.5 3.2c-4.2 2.5-8.3 2.6-11 .3l-2.9-2.4 14.6 8z"/><path class="st21" d="M265.5 450.6l-16.2-9c-2.6-1.4-6.2-1.1-9.9 1.1l-14.6 8.4c-4.2 2.5-8.3 7-11 12.3l-2.9 5.7c-2.7 5.3-6.7 9.9-11 12.3l-5.5 3.2 16.2 9 5.5-3.2c4.2-2.5 8.3-7 11-12.3l2.9-5.7c2.7-5.3 6.7-9.9 11-12.3l14.6-8.4c3.8-2.2 7.4-2.5 10.1-1l-.2-.1z"/><path class="st32" d="M210.7 493.6l5.5-3.2c4.2-2.5 8.3-7 11-12.3l2.9-5.7c2.7-5.3 6.7-9.9 11-12.3l14.6-8.4c3.8-2.2 7.4-2.5 10.1-1l-.2-.1-.6-.3c.5.3 1 .6 1.4 1l3.1 2.4c2.7 2.2 6.7 2.1 11-.3l5.5-3.2v7.3l-75.3 44.1v-8z"/><path class="st53" d="M210.7 501.5l-16.2-9v-7.9l16.2 9z"/><path class="st39" d="M248.4 455.9v23.6"/></g><g><path class="st53" d="M297.1 468c.5.3 1 .6 1.4 1l3.1 2.4c2.7 2.2 6.7 2.1 11-.3l5.5-3.2-16.2-9-5.5 3.2c-4.2 2.5-8.3 2.6-11 .3l-2.9-2.4 14.6 8z"/><path class="st21" d="M297.7 468.3l-16.2-9c-2.6-1.4-6.2-1.1-9.9 1.1l-14.6 8.4c-4.2 2.5-8.3 7-11 12.3l-2.9 5.7c-2.7 5.3-6.7 9.9-11 12.3l-5.5 3.2 16.2 9 5.5-3.2c4.2-2.5 8.3-7 11-12.3l2.9-5.7c2.7-5.3 6.7-9.9 11-12.3l14.6-8.4c3.8-2.2 7.4-2.5 10.1-1l-.2-.1z"/><path class="st32" d="M242.9 511.3l5.5-3.2c4.2-2.5 8.3-7 11-12.3l2.9-5.7c2.7-5.3 6.7-9.9 11-12.3l14.6-8.4c3.8-2.2 7.4-2.5 10.1-1l-.2-.1-.6-.3c.5.3 1 .6 1.4 1l3.1 2.4c2.7 2.2 6.7 2.1 11-.3l5.5-3.2v7.3l-75.3 44.1v-8z"/><path class="st53" d="M242.9 519.2l-16.3-9v-7.9l16.3 9z"/><path class="st39" d="M280.5 473.6v23.6"/></g></g><path class="st39" d="M71.4 356.4l38-21.9"/><g><path class="st46" d="M111.4 327.1c-4.8-1.2-10.4-1.2-15.2 0H84.8v10.4c.2 2.7 2 5.3 5.5 7.4 7.4 4.3 19.5 4.3 26.9 0 3.5-2 5.4-4.7 5.5-7.4v-10.4h-11.3z"/><path class="st25" d="M111.4 327.1c-4.8-1.2-10.4-1.2-15.2 0H84.8v10.4c.2 2.7 2 5.3 5.5 7.4 7.4 4.3 19.5 4.3 26.9 0 3.5-2 5.4-4.7 5.5-7.4v-10.4h-11.3z"/><ellipse class="st35" cx="103.8" cy="327.4" rx="19" ry="11"/><ellipse class="st53" cx="103.8" cy="327.4" rx="5.4" ry="3.1"/><path class="st54" d="M90.6 345v-10l9.4-5.4"/></g><path class="st34" d="M350.1 413.1l-15.5 9c-3.1 1.8-5.6 6.1-5.6 9.6v13.5l10.5 6v-13.6c0-3.5 2.5-7.8 5.5-9.6l15.4-8.9-10.3-6z"/><g><path class="st46" d="M391.8 139.9v20.6c.1 1.2.9 2.4 2.4 3.3 3.3 1.9 8.6 1.9 11.9 0 1.6-.9 2.4-2.1 2.4-3.3v-20.6h-16.7z"/><path class="st25" d="M391.8 139.9v20.6c.1 1.2.9 2.4 2.4 3.3 3.3 1.9 8.6 1.9 11.9 0 1.6-.9 2.4-2.1 2.4-3.3v-20.6h-16.7z"/><ellipse class="st35" cx="400.2" cy="139.9" rx="8.4" ry="4.9"/></g><g><path class="st46" d="M595 236.3c-3.9-1-8.4-1-12.3 0h-9.2v8.5c.1 2.2 1.6 4.3 4.5 6 6 3.5 15.8 3.5 21.8 0 2.9-1.7 4.3-3.8 4.5-6v-8.5H595z"/><path class="st25" d="M595 236.3c-3.9-1-8.4-1-12.3 0h-9.2v8.5c.1 2.2 1.6 4.3 4.5 6 6 3.5 15.8 3.5 21.8 0 2.9-1.7 4.3-3.8 4.5-6v-8.5H595z"/><ellipse class="st35" cx="588.8" cy="236.6" rx="15.4" ry="8.9"/><g><path class="st21" d="M574.5 186.6c-.9.1-1.8.4-2.7.6-1.1.3-2.1.7-3.1 1.2-2.2-4.4-7.1-6.4-12.6-4.7-7.2 2.2-12.7 10-12.2 17.3.1 2 4.9-1.7 6.7-6 1.5-3.7 1.8-6.6 2.1-9.7 2.2-1.4 4.4-1.9 6.1-2.1 1.2 10.4-3.6 20.5-9.4 23.3-5.1 2.5-10.7 1.2-11.8-3.8-1.7-11.1 6.5-22.5 16.8-25.7 8.5-2.5 16.8 1.6 20.1 9.6z"/><path class="st21" d="M591.9 196.6c-.9.1-1.8.4-2.7.6-1.1.3-2.1.7-3.1 1.2-2.2-4.4-7.1-6.4-12.6-4.7-7.2 2.2-12.7 10-12.2 17.3.1 2 4.9-1.7 6.7-6 1.5-3.7 1.8-6.6 2.1-9.7 2.2-1.4 4.4-1.9 6.1-2.1 1.2 10.4-3.6 20.5-9.4 23.3-5.1 2.5-10.7 1.2-11.8-3.8-1.7-11.1 6.5-22.5 16.8-25.7 8.5-2.5 16.7 1.6 20.1 9.6zM539.7 166.5c-.9.1-1.8.4-2.7.6-1.1.3-2.1.7-3.1 1.2-2.2-4.4-7.1-6.4-12.6-4.7-7.2 2.2-12.7 10-12.2 17.3.1 2 4.9-1.7 6.7-6 1.5-3.7 1.8-6.6 2.1-9.7 2.2-1.4 4.4-1.9 6.1-2.1 1.2 10.4-3.6 20.5-9.4 23.3-5.1 2.5-10.7 1.2-11.8-3.8-1.7-11.1 6.5-22.5 16.8-25.7 8.5-2.6 16.7 1.6 20.1 9.6z"/><path class="st21" d="M557 176.5c-.9.1-1.8.4-2.7.6-1.1.3-2.1.7-3.1 1.2-2.2-4.4-7.1-6.4-12.6-4.7-7.2 2.2-12.7 10-12.2 17.3.1 2 4.9-1.7 6.7-6 1.5-3.7 1.8-6.6 2.1-9.7 2.2-1.4 4.4-1.9 6.1-2.1 1.2 10.4-3.6 20.5-9.4 23.3-5.1 2.5-10.7 1.2-11.8-3.8-1.7-11.1 6.5-22.5 16.8-25.7 8.5-2.5 16.7 1.6 20.1 9.6zM504.7 146.3c-.9.1-1.8.4-2.7.6-1.1.3-2.1.7-3.1 1.2-2.2-4.4-7.1-6.4-12.6-4.7-7.2 2.2-12.7 10-12.2 17.3.1 2 4.9-1.7 6.7-6 1.5-3.7 1.8-6.6 2.1-9.7 2.2-1.4 4.4-1.9 6.1-2.1 1.2 10.4-3.6 20.5-9.4 23.3-5.1 2.5-10.7 1.2-11.8-3.8-1.7-11.1 6.5-22.5 16.8-25.7 8.5-2.5 16.7 1.6 20.1 9.6z"/><path class="st21" d="M522 156.4c-.9.1-1.8.4-2.7.6-1.1.3-2.1.7-3.1 1.2-2.2-4.4-7.1-6.4-12.6-4.7-7.2 2.2-12.7 10-12.2 17.3.1 2 4.9-1.7 6.7-6 1.5-3.7 1.8-6.6 2.1-9.7 2.2-1.4 4.4-1.9 6.1-2.1 1.2 10.4-3.6 20.5-9.4 23.3-5.1 2.5-10.7 1.2-11.8-3.8-1.7-11.1 6.5-22.5 16.8-25.7 8.5-2.6 16.7 1.6 20.1 9.6zM469.8 126.2c-.9.1-1.8.4-2.7.6-1.1.3-2.1.7-3.1 1.2-2.2-4.4-7.1-6.4-12.6-4.7-7.2 2.2-12.7 10-12.2 17.3.1 2 4.9-1.7 6.7-6 1.5-3.7 1.8-6.6 2.1-9.7 2.2-1.4 4.4-1.9 6.1-2.1 1.2 10.4-3.6 20.5-9.4 23.3-5.1 2.5-10.7 1.2-11.8-3.8-1.7-11.1 6.5-22.5 16.8-25.7 8.5-2.5 16.8 1.6 20.1 9.6z"/><path class="st21" d="M452.3 116.2c-.9.1-1.8.4-2.7.6-1.1.3-2.1.7-3.1 1.2-2.2-4.4-7.1-6.4-12.6-4.7-7.2 2.2-12.7 10-12.2 17.3.1 2 4.9-1.7 6.7-6 1.5-3.7 1.8-6.6 2.1-9.7 2.2-1.4 4.4-1.9 6.1-2.1 1.2 10.4-3.6 20.5-9.4 23.3-5.1 2.5-10.7 1.2-11.8-3.8-1.7-11.1 6.5-22.5 16.8-25.7 8.5-2.5 16.7 1.6 20.1 9.6zM412.6 104.7c2.2-1.4 4.4-1.9 6.1-2.1M487.2 136.2c-.9.1-1.8.4-2.7.6-1.1.3-2.1.7-3.1 1.2-2.2-4.4-7.1-6.4-12.6-4.7-7.2 2.2-12.7 10-12.2 17.3.1 2 4.9-1.7 6.7-6 1.5-3.7 1.8-6.6 2.1-9.7 2.2-1.4 4.4-1.9 6.1-2.1 1.2 10.4-3.6 20.5-9.4 23.3-5.1 2.5-10.7 1.2-11.8-3.8-1.7-11.1 6.5-22.5 16.8-25.7 8.5-2.5 16.7 1.6 20.1 9.6z"/><path class="st26" d="M414.3 96.4c-8.6 2.6-15.7 11.1-16.9 20.3v22.9c-.1.5.2 1 .9 1.4 1.2.7 3.2.7 4.5 0 .6-.4.9-.8.9-1.3l.3-22.5c1-6.3 5.9-12.2 12.1-14.2 5.5-1.7 10.4.3 12.6 4.7 1-.5 2-.9 3.1-1.2.9-.3 1.8-.5 2.7-.6-3.3-8-11.6-12.1-20.2-9.5z"/><path class="st25" d="M414.3 96.4c-8.6 2.6-15.7 11.1-16.9 20.3v22.9c-.1.5.2 1 .9 1.4 1.2.7 3.2.7 4.5 0 .6-.4.9-.8.9-1.3l.3-22.5c1-6.3 5.9-12.2 12.1-14.2 5.5-1.7 10.4.3 12.6 4.7 1-.5 2-.9 3.1-1.2.9-.3 1.8-.5 2.7-.6-3.3-8-11.6-12.1-20.2-9.5z"/></g><path class="st21" d="M589.6 192.8c.9 1.1 1.6 2.3 2.2 3.7 1.8 5.2 1 39.5 1 39.5 0 .5-.3.9-.9 1.3-1.2.7-3.2.7-4.5 0-.6-.4-.9-.8-.9-1.3 0 0 1.2-29.3-.3-36.4-.1-.5-.3-1.5-.5-1.9-.3-.5-.6-.9-1-1.3"/></g><g><path d="M647.2 311.3V203.6h-19v108c0 1.4.9 2.8 2.8 3.9 3.7 2.1 9.7 2.1 13.5 0 1.9-1.3 2.8-2.8 2.7-4.2z" fill="#112a4c"/><path class="st52" d="M647.2 311.3V203.6h-19v108c0 1.4.9 2.8 2.8 3.9 3.7 2.1 9.7 2.1 13.5 0 1.9-1.3 2.8-2.8 2.7-4.2z"/><ellipse class="st32" cx="637.7" cy="203.5" rx="9.5" ry="5.5"/><g><ellipse cx="637.7" cy="162.1" rx="48.4" ry="27.9" fill="#00f0c8" stroke="#0d234c" stroke-miterlimit="10"/><defs><circle id="XMLID_32_" cx="637.7" cy="162.1" r="48.4"/></defs><use xlink:href="#XMLID_32_" overflow="visible" fill="#f8f7f8"/><clipPath id="XMLID_33_"><use xlink:href="#XMLID_32_" overflow="visible"/></clipPath><g clip-path="url(#XMLID_33_)"><path class="st43" d="M604.7 169.1c18.2 10.5 47.8 10.5 66 0 9.1-5.3 13.7-12.2 13.7-19.1h.3c-5.2-21.1-24.3-36.7-47-36.7s-41.7 15.6-47 36.7h.3c0 7 4.5 13.9 13.7 19.1zM598.2 189.8c8.8 12.3 23.2 20.4 39.5 20.4 16.2 0 30.5-8 39.3-20.2-9.1 2.6-22.7 5.7-36.7 5.7-15.4 0-31.3-3.3-42.1-5.9z"/><path class="st21" d="M684.6 150.1h-.3c0 6.9-4.6 13.8-13.7 19.1-18.2 10.5-47.8 10.5-66 0-9.1-5.3-13.7-12.2-13.7-19.1h-.3c-.9 3.7-1.4 7.7-1.4 11.7 0 10.4 3.3 20.1 8.9 28 10.8 2.7 26.6 5.9 42.1 5.9 14 0 27.6-3.1 36.7-5.7 5.7-7.9 9.1-17.7 9.1-28.2.1-4.1-.4-8-1.4-11.7z"/></g><use xlink:href="#XMLID_32_" overflow="visible" fill="none" stroke="#0d5068" stroke-miterlimit="10"/><g><defs><circle id="SVGID_15_" cx="637.7" cy="162.1" r="48.4"/></defs><clipPath id="SVGID_2_"><use xlink:href="#SVGID_15_" overflow="visible"/></clipPath></g><path class="st53" d="M686.1 162.1c0 7.2-4.7 14.3-14.2 19.8-18.9 10.9-49.5 10.9-68.4 0-9.5-5.5-14.2-12.6-14.2-19.8v.1c0 26.7 21.7 48.4 48.4 48.4 26.7-.1 48.4-21.7 48.4-48.5z"/></g></g><g><path class="st46" d="M400.9 499.4c-10.9-2.8-23.4-2.8-34.2 0h-25.5v23.4c.4 6 4.5 11.9 12.4 16.5 16.6 9.6 43.6 9.6 60.2 0 7.9-4.6 12.1-10.5 12.4-16.5v-23.4h-25.3z"/><path class="st25" d="M400.9 499.4c-10.9-2.8-23.4-2.8-34.2 0h-25.5v23.4c.4 6 4.5 11.9 12.4 16.5 16.6 9.6 43.6 9.6 60.2 0 7.9-4.6 12.1-10.5 12.4-16.5v-23.4h-25.3z"/><ellipse class="st35" cx="383.8" cy="500.1" rx="42.6" ry="24.6"/><path class="st46" d="M396.8 477.1c-8.3-2.1-17.8-2.1-26 0h-19.5V495c.3 4.6 3.4 9.1 9.5 12.6 12.7 7.3 33.3 7.3 46 0 6-3.5 9.2-8 9.5-12.6v-17.9h-19.5z"/><path class="st25" d="M396.8 477.1c-8.3-2.1-17.8-2.1-26 0h-19.5V495c.3 4.6 3.4 9.1 9.5 12.6 12.7 7.3 33.3 7.3 46 0 6-3.5 9.2-8 9.5-12.6v-17.9h-19.5z"/><ellipse class="st35" cx="383.8" cy="477.6" rx="32.5" ry="18.8"/><ellipse class="st53" cx="383.8" cy="477.6" rx="13" ry="7.5"/><path class="st54" d="M361.2 507.6v-17l22.6-13M349.3 536.5v-21.6l11.9-7.1"/><ellipse class="st51" cx="383.8" cy="477.6" rx="3.2" ry="1.9"/></g><g><path class="st40" d="M183 252.4l9.7 5.6"/><path class="st58" d="M178.2 244.8c0-.4-.2-.8-.5-1l-10-5.8c-.1-.1-.3-.1-.4 0l10.7-6.2c.1-.1.2-.1.4 0l10.4 6c.3.2.5.6.5 1v10.6c0 .4-.2.8-.5 1l-10.8 6.2.2-11.8z"/><path class="st58" d="M177.6 256.6l-10.1-5.8c-.3-.2-.5-.6-.5-1v-11.4c0-.4.2-.6.5-.4l10.1 5.8c.3.2.5.6.5 1v11.4c.1.4-.2.6-.5.4z"/><path class="st59" d="M178.2 244.8v11.4"/><path class="st39" d="M184.1 253.1v-4.5"/><ellipse transform="rotate(-60 184.534 246.901)" class="st21" cx="184.5" cy="246.9" rx="2.7" ry="1.5"/></g><g><path class="st40" d="M271.7 200.5l9.7 5.6"/><path class="st58" d="M266.9 192.8c0-.4-.2-.8-.5-1l-10-5.8c-.1-.1-.3-.1-.4 0l10.7-6.2c.1-.1.2-.1.4 0l10.4 6c.3.2.5.6.5 1v10.6c0 .4-.2.8-.5 1l-10.8 6.2.2-11.8z"/><path class="st58" d="M266.4 204.7l-10.1-5.8c-.3-.2-.5-.6-.5-1v-11.4c0-.4.2-.6.5-.4l10.1 5.8c.3.2.5.6.5 1v11.4c0 .4-.3.5-.5.4z"/><path class="st59" d="M266.9 192.8v11.5"/><path class="st39" d="M272.9 201.1v-4.5"/><ellipse transform="rotate(-60 273.255 194.926)" class="st21" cx="273.3" cy="194.9" rx="2.7" ry="1.5"/></g><ellipse class="st39" cx="359.5" cy="140.4" rx="11.9" ry="6.9"/><g><path class="st35" d="M585.3 425.1c0-2 1.2-4.4 2.8-5.3l69.8-41c.8-.5 1.5-.6 2-.2l-28.6-16.4c-.5-.4-1.3-.5-2.1 0l-71.7 42.1c-1.6.9-2.9 3.4-2.9 5.5v15.7c0 2 1.2 4.4 2.8 5.3l28.9 16.6-1-22.3z"/><path class="st51" d="M588.1 447.4l69.9-41c1.5-.9 2.8-3.3 2.8-5.3v-20.2c0-2-1.2-3-2.8-2.1l-69.9 41c-1.5.9-2.8 3.3-2.8 5.3v20.2c0 2 1.2 3 2.8 2.1z"/><path class="st59" d="M585.3 425.1v20.2"/><ellipse class="st53" cx="554.7" cy="451.6" rx="7.9" ry="4.5"/><ellipse transform="rotate(-30 569.695 426.18)" class="st50" cx="569.7" cy="426.2" rx="4.5" ry="7.9"/><path class="st22" d="M572 428.5c0-1.8-1.3-4-2.8-4.9-.7-.4-1.4-.5-1.9-.2l-.1.1-5.5 3.2c-6.1 3.5-10.8 11.7-10.8 18.7v4.6h.1c-.2.7.2 1.4 1.1 2 1.6.9 4.1.9 5.7 0 .9-.5 1.3-1.3 1.1-2v-4.6c0-4.2 3.2-9.7 6.8-11.8l5.4-3.1c.5-.4.9-1 .9-2z"/><path class="st25" d="M572 428.5c0-1.8-1.3-4-2.8-4.9-.7-.4-1.4-.5-1.9-.2l-.1.1-5.5 3.2c-6.1 3.5-10.8 11.7-10.8 18.7v4.6h.1c-.2.7.2 1.4 1.1 2 1.6.9 4.1.9 5.7 0 .9-.5 1.3-1.3 1.1-2v-4.6c0-4.2 3.2-9.7 6.8-11.8l5.4-3.1c.5-.4.9-1 .9-2z"/><path class="st51" d="M559.3 407.6l21.6 12.4"/><path class="st21" d="M623.8 365.3L653 382v27.2l-9.9 5.7v-27.5l-28.8-16.5z"/><g><path class="st50" d="M624.8 381.9l-20.5-4.9v6.7c-.1.8.4 1.5 1.3 2.1l9.7 5.6c1.9 1.1 5.3 1 7.6-.3 1.2-.7 1.9-1.6 1.9-2.5v-6.7z"/><path class="st53" d="M606.1 374.4c2.2-1.3 5.6-1.4 7.6-.3l9.7 5.6c1.9 1.1 1.7 3.1-.5 4.4-2.2 1.3-5.6 1.4-7.6.3l-9.7-5.6c-1.9-1.1-1.7-3.1.5-4.4z"/></g><g><path class="st50" d="M611.8 389.6l-20.5-4.9v6.7c-.1.8.4 1.5 1.3 2.1l9.7 5.6c1.9 1.1 5.3 1 7.6-.3 1.2-.7 1.9-1.6 1.9-2.5v-6.7z"/><path class="st34" d="M593.2 382.2c2.2-1.3 5.6-1.4 7.6-.3l9.7 5.6c1.9 1.1 1.7 3.1-.5 4.4-2.2 1.3-5.6 1.4-7.6.3l-9.7-5.6c-2-1.2-1.7-3.1.5-4.4z"/></g><g><path class="st50" d="M598 397.4l-20.5-4.9v6.7c-.1.8.4 1.5 1.3 2.1l9.7 5.6c1.9 1.1 5.3 1 7.6-.3 1.2-.7 1.9-1.6 1.9-2.5v-6.7z"/><path class="st35" d="M579.4 390c2.2-1.3 5.6-1.4 7.6-.3l9.7 5.6c1.9 1.1 1.7 3.1-.5 4.4-2.2 1.3-5.6 1.4-7.6.3l-9.7-5.6c-2-1.2-1.8-3.1.5-4.4z"/></g><path class="st53" d="M643.1 387.4l9.9-5.4v27.2l-9.9 5.7z"/></g><ellipse class="st41" cx="359.5" cy="140.4" rx="3.7" ry="2.1"/><g><path class="st35" d="M491.9 481.8c0-2 1.2-4.4 2.8-5.3l69.8-41c.8-.5 1.5-.6 2-.2L537.8 419c-.5-.4-1.3-.5-2.1 0L464 461.1c-1.6.9-2.9 3.4-2.9 5.5v15.7c0 2 1.2 4.4 2.8 5.3l28.9 16.6-.9-22.4z"/><path class="st51" d="M494.7 504.1l69.9-41c1.5-.9 2.8-3.3 2.8-5.3v-20.2c0-2-1.2-3-2.8-2.1l-69.9 41c-1.5.9-2.8 3.3-2.8 5.3V502c0 2 1.3 3 2.8 2.1z"/><path class="st59" d="M491.9 481.8V502"/><ellipse class="st50" cx="461.4" cy="508.3" rx="7.9" ry="4.5"/><ellipse transform="rotate(-30 476.345 482.9)" class="st50" cx="476.4" cy="482.9" rx="4.5" ry="7.9"/><path class="st22" d="M478.6 485.2c0-1.8-1.3-4-2.8-4.9-.7-.4-1.4-.5-1.9-.2l-.1.1-5.5 3.2c-6.1 3.5-10.8 11.7-10.8 18.7v4.6h.1c-.2.7.2 1.4 1.1 2 1.6.9 4.1.9 5.7 0 .9-.5 1.3-1.3 1.1-2V502c0-4.2 3.2-9.7 6.8-11.8l5.4-3.1c.6-.3.9-.9.9-1.9z"/><path class="st25" d="M478.6 485.2c0-1.8-1.3-4-2.8-4.9-.7-.4-1.4-.5-1.9-.2l-.1.1-5.5 3.2c-6.1 3.5-10.8 11.7-10.8 18.7v4.6h.1c-.2.7.2 1.4 1.1 2 1.6.9 4.1.9 5.7 0 .9-.5 1.3-1.3 1.1-2V502c0-4.2 3.2-9.7 6.8-11.8l5.4-3.1c.6-.3.9-.9.9-1.9z"/><path class="st51" d="M466 464.4l21.5 12.3"/><path class="st21" d="M530.5 422.1l29.2 16.7v27.1l-10 5.7v-27.5l-28.8-16.4z"/><g><path class="st50" d="M531.4 438.6l-20.5-4.9v6.7c-.1.8.4 1.5 1.3 2.1l9.7 5.6c1.9 1.1 5.3 1 7.6-.3 1.2-.7 1.9-1.6 1.9-2.5v-6.7z"/><path class="st53" d="M512.8 431.1c2.2-1.3 5.6-1.4 7.6-.3l9.7 5.6c1.9 1.1 1.7 3.1-.5 4.4-2.2 1.3-5.6 1.4-7.6.3l-9.7-5.6c-2-1.1-1.8-3.1.5-4.4z"/></g><g><path class="st50" d="M518.5 446.3l-20.5-4.9v6.7c-.1.8.4 1.5 1.3 2.1l9.7 5.6c1.9 1.1 5.3 1 7.6-.3 1.2-.7 1.9-1.6 1.9-2.5v-6.7z"/><path class="st34" d="M499.8 438.9c2.2-1.3 5.6-1.4 7.6-.3l9.7 5.6c1.9 1.1 1.7 3.1-.5 4.4-2.2 1.3-5.6 1.4-7.6.3l-9.7-5.6c-1.9-1.1-1.7-3.1.5-4.4z"/></g><g><path class="st50" d="M504.7 454.1l-20.5-4.9v6.7c-.1.8.4 1.5 1.3 2.1l9.7 5.6c1.9 1.1 5.3 1 7.6-.3 1.2-.7 1.9-1.6 1.9-2.5v-6.7z"/><path class="st35" d="M486 446.7c2.2-1.3 5.6-1.4 7.6-.3l9.7 5.6c1.9 1.1 1.7 3.1-.5 4.4-2.2 1.3-5.6 1.4-7.6.3l-9.7-5.6c-2-1.2-1.7-3.1.5-4.4z"/></g><path class="st53" d="M549.7 444.1l10-5.3v27.1l-10 5.7z"/></g><g><ellipse class="st53" cx="297.1" cy="510.3" rx="7.9" ry="4.5"/><ellipse transform="rotate(-60 282.113 484.892)" class="st53" cx="282.1" cy="484.9" rx="7.9" ry="4.5"/><path class="st18" d="M301 508.6l.1-4.6c0-7-4.7-15.2-10.8-18.7l-5.5-3.2-.1-.1c-.5-.2-1.2-.2-1.9.2-1.6.9-2.8 3.1-2.8 4.9 0 1 .4 1.6 1 1.9l5.4 3.1c3.6 2.1 6.8 7.6 6.8 11.8v4.6c-.2.7.2 1.4 1.1 2 1.6.9 4.1.9 5.7 0 .8-.4 1.2-1.2 1-1.9z"/><path class="st25" d="M301 508.6l.1-4.6c0-7-4.7-15.2-10.8-18.7l-5.5-3.2-.1-.1c-.5-.2-1.2-.2-1.9.2-1.6.9-2.8 3.1-2.8 4.9 0 1 .4 1.6 1 1.9l5.4 3.1c3.6 2.1 6.8 7.6 6.8 11.8v4.6c-.2.7.2 1.4 1.1 2 1.6.9 4.1.9 5.7 0 .8-.4 1.2-1.2 1-1.9z"/></g><g><path class="st32" d="M331 273.3l24.5 54.6c2.5 5.7 15.1 7.5 22.5 3.3l73.3-41.5c7.4-4.2 3.9-11.2-6.2-12.5l-97.8-13.1c-9.7-1.3-18.8 3.8-16.3 9.2z"/><path class="st51" d="M463.2 242.1v-13.8h-12.9v5.8l-107.2-14.4c-2-.3-4-.3-5.9-.1v-5h-12.7v13.7c0 .5.2 1.1.4 1.7l27.2 60.8c2.8 6.3 16.8 8.4 25.1 3.7l81.6-46.2c3.2-1.9 4.5-4.1 4.4-6.2z"/><path class="st35" d="M325 215.8l27.2 60.8c2.8 6.3 16.8 8.4 25.1 3.7l81.6-46.2c8.3-4.7 4.4-12.4-6.9-13.9l-108.8-14.6c-10.8-1.5-20.9 4.2-18.2 10.2z"/><path class="st32" d="M395.7 240.8l-7.1 4c-1.1.6-2.8.7-4 .1l-37.8-17.2c-5.7-2.6-5.9-7.4-.6-10.4 5.3-3 13.9-2.9 18.6.2l31.1 20.9c.9.8.8 1.7-.2 2.4zM410.1 253l.6-.3c3.6-2 3.6-5.3 0-7.3l-.6-.3c-3.6-2-9.4-1.9-13 .1l-.6.3c-3.6 2-3.6 5.3-.1 7.3l.6.3c3.6 2 9.5 2 13.1-.1z"/></g></svg>